# xmcd CD database file
#
# Track frame offsets:
#	150
#	21790
#	37980
#	57635
#	78928
#	101490
#	124040
#	145320
#	162363
#	183613
#	200670
#	223448
#	243280
#	266210
#	293700
#
# Disc length: 4162 seconds
#
# Revision: 1
# Processed by: cddbd v1.5.1PL0 Copyright (c) Steve Scherf et al.
# Submitted via: CDex 1.60beta1
#
DISCID=e610400f
DTITLE=Various Artist - Beautiful Songs
DYEAR=2004
DGENRE=JPop
TTITLE0=岡本真夜 - TOMORROW
TTITLE1=原田知世 - ロマンス
TTITLE2=小泉今日子 - 優しい雨
TTITLE3=Kiroro - 長い間
TTITLE4=広瀬香美 - I Wish
TTITLE5=MINAMI - 素直になれる (Acoustic Version)
TTITLE6=中谷美紀 - こわれたこころ (Band Mix)
TTITLE7=森高千里 - 渡良瀬橋
TTITLE8=Kiroro - Best Friend
TTITLE9=酒井法子 - 碧いうさぎ
TTITLE10=中山美穂 - ただ泣きたくなるの
TTITLE11=松たか子 - 明日、春が来たら
TTITLE12=森高千里 - 雨 [1999]
TTITLE13=広瀬香美 - DEAR...again(Ver.2.05)
TTITLE14=小泉今日子 - あなたに会えてよかった
EXTD=YEAR: 2004
EXTT0=
EXTT1=
EXTT2=
EXTT3=
EXTT4=
EXTT5=
EXTT6=
EXTT7=
EXTT8=
EXTT9=
EXTT10=
EXTT11=
EXTT12=
EXTT13=
EXTT14=
PLAYORDER=
